<svg width="220" height="220" viewBox="0 0 220 220" fill="none" xmlns="http://www.w3.org/2000/svg">
<path d="M216.709 136.601C202.012 195.561 142.276 231.402 83.4006 216.704C24.4389 202.007 -11.4022 142.274 3.29571 83.3989C17.9927 24.4389 77.642 -11.4022 136.604 3.29571C195.479 17.9068 231.407 77.6402 216.709 136.601Z" fill="url(#paint0_linear_26_542)"/>
<path d="M162.375 96.293C164.523 81.6836 153.437 73.7773 138.14 68.5352L143.125 48.6836L131.093 45.6758L126.281 65.0117C123.101 64.2383 119.836 63.4648 116.57 62.7773L121.382 43.3555L109.351 40.3477L104.453 60.1133C101.789 59.5117 99.2106 58.9102 96.7184 58.3086V58.2227L80.0465 54.0977L76.8668 66.9883C76.8668 66.9883 85.8043 69.0508 85.6324 69.1367C90.5309 70.3398 91.3903 73.6055 91.2184 76.1836L85.5465 98.7852C85.8903 98.8711 86.3199 98.957 86.8356 99.2148C86.4059 99.1289 85.9762 99.043 85.5465 98.8711L77.6403 130.496C77.0387 131.957 75.4918 134.191 72.1403 133.332C72.2262 133.504 63.3746 131.184 63.3746 131.184L57.359 145.02L73.0856 148.973C76.0074 149.746 78.8434 150.434 81.6793 151.207L76.6949 171.23L88.7262 174.238L93.7106 154.387C96.9762 155.246 100.242 156.105 103.336 156.879L98.4371 176.645L110.468 179.652L115.453 159.629C136.078 163.496 151.547 161.949 157.992 143.301C163.234 128.348 157.734 119.668 146.906 113.996C154.898 112.191 160.828 106.949 162.375 96.293ZM134.789 134.965C131.093 149.918 105.828 141.84 97.6637 139.777L104.281 113.223C112.445 115.285 138.742 119.324 134.789 134.965ZM138.57 96.0352C135.132 109.699 114.164 102.738 107.375 101.02L113.39 76.957C120.179 78.6758 142.093 81.8555 138.57 96.0352Z" fill="white"/>
<defs>
<linearGradient id="paint0_linear_26_542" x1="109.941" y1="-0.0526779" x2="109.941" y2="219.978" gradientUnits="userSpaceOnUse">
<stop stop-color="#F9AA4B"/>
<stop offset="1" stop-color="#F7931A"/>
</linearGradient>
</defs>
</svg>
