<svg width="318" height="318" viewBox="0 0 318 318" fill="none" xmlns="http://www.w3.org/2000/svg">
<circle cx="159" cy="159" r="157" stroke="url(#paint0_linear_25_299)" stroke-width="4"/>
<path d="M101.491 264.088C101.166 264.088 100.869 264.006 100.599 263.842C100.333 263.678 100.12 263.458 99.962 263.183C99.8067 262.904 99.7291 262.595 99.7291 262.255L99.7379 259.447C99.7379 259.113 99.8141 258.812 99.9664 258.542C100.119 258.27 100.328 258.051 100.595 257.887C100.864 257.72 101.163 257.637 101.491 257.637C101.825 257.637 102.123 257.717 102.383 257.878C102.647 258.04 102.857 258.258 103.012 258.533C103.17 258.806 103.249 259.11 103.249 259.447V259.86C103.249 259.884 103.237 259.896 103.214 259.896H102.203C102.18 259.896 102.168 259.884 102.168 259.86V259.447C102.168 259.248 102.104 259.077 101.975 258.933C101.846 258.79 101.685 258.718 101.491 258.718C101.277 258.718 101.113 258.791 100.999 258.938C100.885 259.084 100.828 259.254 100.828 259.447V262.255C100.828 262.475 100.892 262.655 101.021 262.796C101.15 262.934 101.307 263.002 101.491 263.002C101.685 263.002 101.846 262.926 101.975 262.774C102.104 262.619 102.168 262.446 102.168 262.255V261.838C102.168 261.814 102.18 261.803 102.203 261.803H103.223C103.246 261.803 103.258 261.814 103.258 261.838V262.255C103.258 262.592 103.179 262.9 103.021 263.178C102.859 263.454 102.647 263.675 102.383 263.842C102.12 264.006 101.822 264.088 101.491 264.088ZM106.542 264H105.523C105.499 264 105.488 263.985 105.488 263.956L105.505 257.773C105.505 257.75 105.517 257.738 105.54 257.738H107.36C107.685 257.738 107.984 257.817 108.256 257.975C108.529 258.133 108.746 258.346 108.907 258.612C109.071 258.879 109.153 259.181 109.153 259.518C109.153 259.737 109.119 259.937 109.052 260.115C108.984 260.294 108.905 260.445 108.814 260.568C108.726 260.691 108.646 260.782 108.573 260.84C108.898 261.201 109.06 261.624 109.06 262.11L109.069 263.956C109.069 263.985 109.055 264 109.025 264H108.006C107.982 264 107.971 263.991 107.971 263.974V262.11C107.971 261.894 107.894 261.706 107.742 261.548C107.59 261.39 107.402 261.311 107.18 261.311H106.586L106.578 263.956C106.578 263.985 106.566 264 106.542 264ZM107.36 258.814H106.586V260.229H107.36C107.544 260.229 107.708 260.161 107.852 260.023C107.998 259.885 108.072 259.717 108.072 259.518C108.072 259.327 108.001 259.163 107.861 259.025C107.72 258.885 107.553 258.814 107.36 258.814ZM113.008 264H111.976C111.955 264 111.945 263.988 111.945 263.965L111.954 261.407L110.75 257.773C110.744 257.75 110.753 257.738 110.776 257.738H111.778C111.807 257.738 111.825 257.75 111.831 257.773L112.494 260.194L113.171 257.773C113.177 257.75 113.192 257.738 113.215 257.738H114.226C114.249 257.738 114.258 257.75 114.252 257.773L113.035 261.372L113.044 263.965C113.044 263.988 113.032 264 113.008 264ZM117.374 264H116.363C116.334 264 116.319 263.985 116.319 263.956L116.337 257.773C116.337 257.75 116.349 257.738 116.372 257.738H118.104C118.654 257.738 119.089 257.906 119.409 258.243C119.731 258.577 119.892 259.033 119.892 259.61C119.892 260.032 119.809 260.399 119.642 260.713C119.472 261.023 119.252 261.264 118.982 261.434C118.713 261.604 118.42 261.688 118.104 261.688H117.418V263.956C117.418 263.985 117.403 264 117.374 264ZM118.104 258.806L117.418 258.814V260.599H118.104C118.294 260.599 118.459 260.508 118.6 260.326C118.741 260.142 118.811 259.903 118.811 259.61C118.811 259.375 118.748 259.184 118.622 259.034C118.496 258.882 118.323 258.806 118.104 258.806ZM123.928 264H122.913C122.887 264 122.873 263.985 122.873 263.956V258.823H121.704C121.675 258.823 121.66 258.809 121.66 258.779L121.669 257.773C121.669 257.75 121.681 257.738 121.704 257.738H125.123C125.156 257.738 125.172 257.75 125.172 257.773V258.779C125.172 258.809 125.16 258.823 125.137 258.823H123.954L123.963 263.956C123.963 263.985 123.951 264 123.928 264ZM128.667 264.088C128.348 264.088 128.053 264.006 127.784 263.842C127.517 263.678 127.302 263.459 127.138 263.187C126.977 262.912 126.896 262.61 126.896 262.282L126.905 259.43C126.905 259.096 126.985 258.795 127.147 258.529C127.305 258.259 127.519 258.044 127.788 257.883C128.058 257.719 128.351 257.637 128.667 257.637C128.995 257.637 129.29 257.717 129.55 257.878C129.814 258.04 130.025 258.256 130.183 258.529C130.344 258.798 130.425 259.099 130.425 259.43L130.434 262.282C130.434 262.61 130.355 262.91 130.196 263.183C130.035 263.458 129.821 263.678 129.555 263.842C129.288 264.006 128.992 264.088 128.667 264.088ZM128.667 263.002C128.849 263.002 129.007 262.929 129.142 262.783C129.276 262.633 129.344 262.466 129.344 262.282L129.335 259.43C129.335 259.23 129.272 259.062 129.146 258.924C129.02 258.787 128.86 258.718 128.667 258.718C128.483 258.718 128.324 258.785 128.192 258.92C128.061 259.055 127.995 259.225 127.995 259.43V262.282C127.995 262.478 128.061 262.648 128.192 262.792C128.324 262.932 128.483 263.002 128.667 263.002ZM134.347 264.088C134.021 264.088 133.724 264.006 133.454 263.842C133.188 263.678 132.975 263.458 132.817 263.183C132.662 262.904 132.584 262.595 132.584 262.255L132.593 259.447C132.593 259.113 132.669 258.812 132.822 258.542C132.974 258.27 133.183 258.051 133.45 257.887C133.72 257.72 134.018 257.637 134.347 257.637C134.681 257.637 134.978 257.717 135.239 257.878C135.502 258.04 135.712 258.258 135.867 258.533C136.025 258.806 136.104 259.11 136.104 259.447V259.86C136.104 259.884 136.093 259.896 136.069 259.896H135.058C135.035 259.896 135.023 259.884 135.023 259.86V259.447C135.023 259.248 134.959 259.077 134.83 258.933C134.701 258.79 134.54 258.718 134.347 258.718C134.133 258.718 133.969 258.791 133.854 258.938C133.74 259.084 133.683 259.254 133.683 259.447V262.255C133.683 262.475 133.747 262.655 133.876 262.796C134.005 262.934 134.162 263.002 134.347 263.002C134.54 263.002 134.701 262.926 134.83 262.774C134.959 262.619 135.023 262.446 135.023 262.255V261.838C135.023 261.814 135.035 261.803 135.058 261.803H136.078C136.101 261.803 136.113 261.814 136.113 261.838V262.255C136.113 262.592 136.034 262.9 135.876 263.178C135.715 263.454 135.502 263.675 135.239 263.842C134.975 264.006 134.678 264.088 134.347 264.088ZM140 264.088C139.683 264.088 139.39 264.006 139.121 263.842C138.851 263.678 138.636 263.458 138.475 263.183C138.317 262.904 138.237 262.601 138.237 262.273L138.255 257.773C138.255 257.75 138.267 257.738 138.29 257.738H139.301C139.324 257.738 139.336 257.75 139.336 257.773V262.273C139.336 262.475 139.401 262.648 139.529 262.792C139.658 262.932 139.815 263.002 140 263.002C140.193 263.002 140.354 262.932 140.483 262.792C140.612 262.648 140.676 262.475 140.676 262.273V257.773C140.676 257.75 140.688 257.738 140.712 257.738H141.722C141.746 257.738 141.758 257.75 141.758 257.773L141.775 262.273C141.775 262.604 141.696 262.909 141.538 263.187C141.377 263.462 141.163 263.682 140.896 263.846C140.63 264.007 140.331 264.088 140 264.088ZM145.112 264H144.093C144.069 264 144.058 263.985 144.058 263.956L144.075 257.773C144.075 257.75 144.087 257.738 144.11 257.738H145.93C146.255 257.738 146.554 257.817 146.826 257.975C147.099 258.133 147.315 258.346 147.477 258.612C147.641 258.879 147.723 259.181 147.723 259.518C147.723 259.737 147.689 259.937 147.622 260.115C147.554 260.294 147.475 260.445 147.384 260.568C147.296 260.691 147.216 260.782 147.143 260.84C147.468 261.201 147.63 261.624 147.63 262.11L147.639 263.956C147.639 263.985 147.625 264 147.595 264H146.576C146.552 264 146.541 263.991 146.541 263.974V262.11C146.541 261.894 146.464 261.706 146.312 261.548C146.16 261.39 145.972 261.311 145.75 261.311H145.156L145.147 263.956C145.147 263.985 145.136 264 145.112 264ZM145.93 258.814H145.156V260.229H145.93C146.114 260.229 146.278 260.161 146.422 260.023C146.568 259.885 146.642 259.717 146.642 259.518C146.642 259.327 146.571 259.163 146.431 259.025C146.29 258.885 146.123 258.814 145.93 258.814ZM151.029 264H150.01C149.986 264 149.974 263.985 149.974 263.956L149.992 257.773C149.992 257.75 150.004 257.738 150.027 257.738H151.846C152.172 257.738 152.471 257.817 152.743 257.975C153.015 258.133 153.232 258.346 153.393 258.612C153.557 258.879 153.639 259.181 153.639 259.518C153.639 259.737 153.606 259.937 153.538 260.115C153.471 260.294 153.392 260.445 153.301 260.568C153.213 260.691 153.133 260.782 153.059 260.84C153.385 261.201 153.547 261.624 153.547 262.11L153.556 263.956C153.556 263.985 153.541 264 153.512 264H152.492C152.469 264 152.457 263.991 152.457 263.974V262.11C152.457 261.894 152.381 261.706 152.229 261.548C152.076 261.39 151.889 261.311 151.666 261.311H151.073L151.064 263.956C151.064 263.985 151.053 264 151.029 264ZM151.846 258.814H151.073V260.229H151.846C152.031 260.229 152.195 260.161 152.339 260.023C152.485 259.885 152.558 259.717 152.558 259.518C152.558 259.327 152.488 259.163 152.347 259.025C152.207 258.885 152.04 258.814 151.846 258.814ZM158.836 264H155.926C155.903 264 155.891 263.985 155.891 263.956L155.9 257.773C155.9 257.75 155.912 257.738 155.935 257.738H158.827C158.85 257.738 158.862 257.752 158.862 257.782V258.788C158.862 258.812 158.85 258.823 158.827 258.823H156.981V260.229H158.827C158.85 260.229 158.862 260.241 158.862 260.265L158.871 261.284C158.871 261.308 158.859 261.319 158.836 261.319H156.981V262.893H158.836C158.859 262.893 158.871 262.907 158.871 262.937V263.965C158.871 263.988 158.859 264 158.836 264ZM162.225 264H161.325C161.278 264 161.254 263.979 161.254 263.938L161.246 257.808C161.246 257.761 161.269 257.738 161.316 257.738H162.129L163.649 261.284L163.605 257.808C163.605 257.761 163.632 257.738 163.684 257.738H164.577C164.612 257.738 164.629 257.761 164.629 257.808L164.638 263.947C164.638 263.982 164.623 264 164.594 264H163.803L162.243 260.687L162.309 263.93C162.309 263.977 162.281 264 162.225 264ZM168.652 264.088C168.327 264.088 168.029 264.006 167.76 263.842C167.493 263.678 167.281 263.458 167.123 263.183C166.967 262.904 166.89 262.595 166.89 262.255L166.899 259.447C166.899 259.113 166.975 258.812 167.127 258.542C167.279 258.27 167.489 258.051 167.756 257.887C168.025 257.72 168.324 257.637 168.652 257.637C168.986 257.637 169.283 257.717 169.544 257.878C169.808 258.04 170.017 258.258 170.173 258.533C170.331 258.806 170.41 259.11 170.41 259.447V259.86C170.41 259.884 170.398 259.896 170.375 259.896H169.364C169.341 259.896 169.329 259.884 169.329 259.86V259.447C169.329 259.248 169.264 259.077 169.135 258.933C169.007 258.79 168.845 258.718 168.652 258.718C168.438 258.718 168.274 258.791 168.16 258.938C168.046 259.084 167.988 259.254 167.988 259.447V262.255C167.988 262.475 168.053 262.655 168.182 262.796C168.311 262.934 168.467 263.002 168.652 263.002C168.845 263.002 169.007 262.926 169.135 262.774C169.264 262.619 169.329 262.446 169.329 262.255V261.838C169.329 261.814 169.341 261.803 169.364 261.803H170.383C170.407 261.803 170.419 261.814 170.419 261.838V262.255C170.419 262.592 170.34 262.9 170.181 263.178C170.02 263.454 169.808 263.675 169.544 263.842C169.28 264.006 168.983 264.088 168.652 264.088ZM174.525 264H173.492C173.472 264 173.461 263.988 173.461 263.965L173.47 261.407L172.266 257.773C172.26 257.75 172.269 257.738 172.292 257.738H173.294C173.324 257.738 173.341 257.75 173.347 257.773L174.011 260.194L174.688 257.773C174.693 257.75 174.708 257.738 174.731 257.738H175.742C175.766 257.738 175.774 257.75 175.769 257.773L174.551 261.372L174.56 263.965C174.56 263.988 174.548 264 174.525 264ZM182.803 264H181.784C181.76 264 181.749 263.985 181.749 263.956L181.766 257.773C181.766 257.75 181.778 257.738 181.801 257.738H182.9C182.923 257.738 182.944 257.75 182.962 257.773L183.783 258.959L184.601 257.773C184.618 257.75 184.64 257.738 184.667 257.738H185.77C185.796 257.738 185.809 257.75 185.809 257.773L185.827 263.956C185.827 263.985 185.815 264 185.792 264H184.772C184.749 264 184.737 263.985 184.737 263.956L184.728 259.364L183.783 260.735L182.847 259.364L182.838 263.956C182.838 263.985 182.827 264 182.803 264ZM187.854 263.956L188.971 257.773C188.976 257.75 188.991 257.738 189.015 257.738H190.32C190.343 257.738 190.358 257.75 190.364 257.773L191.436 263.956C191.439 263.985 191.427 264 191.401 264H190.403C190.374 264 190.358 263.985 190.355 263.956L190.258 263.297H189.032L188.935 263.956C188.933 263.985 188.918 264 188.891 264H187.89C187.866 264 187.854 263.985 187.854 263.956ZM189.709 259.808L189.656 259.474L189.617 259.808L189.212 262.334H190.078L189.709 259.808ZM194.553 264H193.653C193.606 264 193.582 263.979 193.582 263.938L193.573 257.808C193.573 257.761 193.597 257.738 193.644 257.738H194.457L195.977 261.284L195.933 257.808C195.933 257.761 195.96 257.738 196.012 257.738H196.904C196.94 257.738 196.957 257.761 196.957 257.808L196.966 263.947C196.966 263.982 196.951 264 196.922 264H196.131L194.571 260.687L194.637 263.93C194.637 263.977 194.609 264 194.553 264ZM199.02 263.956L200.136 257.773C200.142 257.75 200.157 257.738 200.18 257.738H201.485C201.509 257.738 201.523 257.75 201.529 257.773L202.602 263.956C202.604 263.985 202.593 264 202.566 264H201.569C201.54 264 201.523 263.985 201.521 263.956L201.424 263.297H200.198L200.101 263.956C200.098 263.985 200.083 264 200.057 264H199.055C199.032 264 199.02 263.985 199.02 263.956ZM200.875 259.808L200.822 259.474L200.782 259.808L200.378 262.334H201.244L200.875 259.808ZM206.202 264.088C205.877 264.088 205.584 264.007 205.324 263.846C205.06 263.685 204.847 263.468 204.686 263.196C204.528 262.923 204.449 262.619 204.449 262.282V259.43C204.449 259.102 204.53 258.803 204.691 258.533C204.849 258.261 205.061 258.044 205.328 257.883C205.595 257.719 205.886 257.637 206.202 257.637C206.533 257.637 206.832 257.716 207.099 257.874C207.366 258.035 207.576 258.25 207.732 258.52C207.89 258.79 207.969 259.093 207.969 259.43V259.843C207.969 259.866 207.954 259.878 207.925 259.878H206.914C206.891 259.878 206.879 259.866 206.879 259.843V259.5C206.879 259.271 206.815 259.083 206.686 258.933C206.557 258.784 206.396 258.709 206.202 258.709C206.03 258.709 205.876 258.781 205.741 258.924C205.606 259.068 205.539 259.236 205.539 259.43V262.282C205.539 262.478 205.605 262.648 205.737 262.792C205.868 262.932 206.024 263.002 206.202 263.002C206.396 263.002 206.557 262.934 206.686 262.796C206.815 262.655 206.879 262.484 206.879 262.282V261.838H206.251C206.219 261.838 206.202 261.823 206.202 261.794V260.788C206.202 260.758 206.219 260.744 206.251 260.744H207.934C207.957 260.744 207.969 260.758 207.969 260.788V262.282C207.969 262.619 207.89 262.923 207.732 263.196C207.571 263.468 207.358 263.685 207.095 263.846C206.831 264.007 206.533 264.088 206.202 264.088ZM213.126 264H210.216C210.193 264 210.181 263.985 210.181 263.956L210.19 257.773C210.19 257.75 210.202 257.738 210.225 257.738H213.117C213.14 257.738 213.152 257.752 213.152 257.782V258.788C213.152 258.812 213.14 258.823 213.117 258.823H211.271V260.229H213.117C213.14 260.229 213.152 260.241 213.152 260.265L213.161 261.284C213.161 261.308 213.149 261.319 213.126 261.319H211.271V262.893H213.126C213.149 262.893 213.161 262.907 213.161 262.937V263.965C213.161 263.988 213.149 264 213.126 264ZM216.59 264H215.571C215.547 264 215.536 263.985 215.536 263.956L215.553 257.773C215.553 257.75 215.565 257.738 215.588 257.738H217.408C217.733 257.738 218.032 257.817 218.304 257.975C218.577 258.133 218.793 258.346 218.954 258.612C219.119 258.879 219.201 259.181 219.201 259.518C219.201 259.737 219.167 259.937 219.1 260.115C219.032 260.294 218.953 260.445 218.862 260.568C218.774 260.691 218.694 260.782 218.621 260.84C218.946 261.201 219.108 261.624 219.108 262.11L219.117 263.956C219.117 263.985 219.102 264 219.073 264H218.054C218.03 264 218.018 263.991 218.018 263.974V262.11C218.018 261.894 217.942 261.706 217.79 261.548C217.638 261.39 217.45 261.311 217.227 261.311H216.634L216.625 263.956C216.625 263.985 216.614 264 216.59 264ZM217.408 258.814H216.634V260.229H217.408C217.592 260.229 217.756 260.161 217.9 260.023C218.046 259.885 218.12 259.717 218.12 259.518C218.12 259.327 218.049 259.163 217.909 259.025C217.768 258.885 217.601 258.814 217.408 258.814Z" fill="url(#paint1_linear_25_299)"/>
<path d="M86.3052 252.046C82.4363 252.046 78.8986 251.07 75.692 249.118C72.5202 247.166 69.9932 244.552 68.1111 241.276C66.2638 237.964 65.3401 234.287 65.3401 230.244L65.4447 196.836C65.4447 192.862 66.3509 189.272 68.1634 186.066C69.9758 182.824 72.4679 180.228 75.6397 178.276C78.8463 176.289 82.4015 175.296 86.3052 175.296C90.2786 175.296 93.8164 176.254 96.9185 178.171C100.055 180.088 102.547 182.685 104.395 185.961C106.277 189.203 107.218 192.828 107.218 196.836V201.75C107.218 202.029 107.079 202.169 106.8 202.169H94.7749C94.4961 202.169 94.3566 202.029 94.3566 201.75V196.836C94.3566 194.466 93.5898 192.427 92.0562 190.719C90.5226 189.011 88.6056 188.157 86.3052 188.157C83.7608 188.157 81.809 189.028 80.4496 190.771C79.0903 192.514 78.4106 194.535 78.4106 196.836V230.244C78.4106 232.858 79.1774 235.002 80.711 236.675C82.2446 238.313 84.1094 239.132 86.3052 239.132C88.6056 239.132 90.5226 238.226 92.0562 236.413C93.5898 234.566 94.3566 232.51 94.3566 230.244V225.277C94.3566 224.998 94.4961 224.859 94.7749 224.859H106.904C107.183 224.859 107.323 224.998 107.323 225.277V230.244C107.323 234.252 106.381 237.912 104.499 241.223C102.582 244.5 100.055 247.131 96.9185 249.118C93.7815 251.07 90.2438 252.046 86.3052 252.046ZM111.505 250.477L124.785 176.916C124.854 176.638 125.029 176.498 125.308 176.498H140.835C141.114 176.498 141.288 176.638 141.358 176.916L154.115 250.477C154.15 250.826 154.01 251 153.697 251H141.829C141.48 251 141.288 250.826 141.254 250.477L140.103 242.635H125.517L124.367 250.477C124.332 250.826 124.157 251 123.844 251H111.923C111.645 251 111.505 250.826 111.505 250.477ZM133.568 201.123L132.941 197.15L132.47 201.123L127.66 231.185H137.96L133.568 201.123ZM195.836 251H161.225C160.946 251 160.807 250.826 160.807 250.477L160.912 177.021C160.912 176.672 161.086 176.498 161.434 176.498H173.355C173.703 176.498 173.878 176.672 173.878 177.021L173.773 237.825H195.836C196.185 237.825 196.359 237.999 196.359 238.348V250.477C196.359 250.826 196.185 251 195.836 251ZM215.912 251H203.783C203.504 251 203.365 250.826 203.365 250.477L203.574 176.916C203.574 176.638 203.713 176.498 203.992 176.498H217.062C217.341 176.498 217.585 176.638 217.794 176.916L227.571 191.033L237.296 176.916C237.505 176.638 237.766 176.498 238.08 176.498H251.203C251.516 176.498 251.673 176.638 251.673 176.916L251.882 250.477C251.882 250.826 251.743 251 251.464 251H239.335C239.056 251 238.916 250.826 238.916 250.477L238.812 195.842L227.571 212.154L216.435 195.842L216.331 250.477C216.331 250.826 216.191 251 215.912 251Z" fill="url(#paint2_linear_25_299)"/>
<path d="M166 83H205C207.761 83 210 85.2386 210 88V105C210 107.761 207.761 110 205 110H176.043" stroke="#EF5321" stroke-width="3"/>
<path fill-rule="evenodd" clip-rule="evenodd" d="M119 61.5C115.41 61.5 112.5 64.4102 112.5 68V126C112.5 129.59 115.41 132.5 119 132.5H190C193.59 132.5 196.5 129.59 196.5 126V111H193.5V126C193.5 127.933 191.933 129.5 190 129.5H119C117.067 129.5 115.5 127.933 115.5 126V68C115.5 66.067 117.067 64.5 119 64.5H190C191.933 64.5 193.5 66.067 193.5 68V82H196.5V68C196.5 64.4101 193.59 61.5 190 61.5H119Z" fill="#EF5321"/>
<circle cx="159.5" cy="83.5" r="6" stroke="#EF5321" stroke-width="3"/>
<circle cx="138.5" cy="96.5" r="6" stroke="#EF5321" stroke-width="3"/>
<path d="M144.5 96H189.5" stroke="#EF5321" stroke-width="3"/>
<circle cx="195.5" cy="96.5" r="6" stroke="#EF5321" stroke-width="3"/>
<circle cx="169.5" cy="110.5" r="6" stroke="#EF5321" stroke-width="3"/>
<defs>
<linearGradient id="paint0_linear_25_299" x1="318" y1="-1.79824e-05" x2="8.58117" y2="326.141" gradientUnits="userSpaceOnUse">
<stop offset="0.131784" stop-color="#212121"/>
<stop offset="1" stop-color="#3A3A41"/>
</linearGradient>
<linearGradient id="paint1_linear_25_299" x1="220" y1="253" x2="216.149" y2="283.697" gradientUnits="userSpaceOnUse">
<stop offset="0.131784" stop-color="#212121"/>
<stop offset="1" stop-color="#3A3A41"/>
</linearGradient>
<linearGradient id="paint2_linear_25_299" x1="257" y1="121" x2="69.3198" y2="320.873" gradientUnits="userSpaceOnUse">
<stop offset="0.131784" stop-color="#212121"/>
<stop offset="1" stop-color="#3A3A41"/>
</linearGradient>
</defs>
</svg>
